<?xml version="1.0" encoding="utf-8"?>
<!-- Generator: Adobe Illustrator 18.0.0, SVG Export Plug-In . SVG Version: 6.00 Build 0)  -->
<!DOCTYPE svg PUBLIC "-//W3C//DTD SVG 1.1//EN" "http://www.w3.org/Graphics/SVG/1.1/DTD/svg11.dtd">
<svg version="1.1" id="Layer_1" xmlns:sketch="http://www.bohemiancoding.com/sketch/ns"
	 xmlns="http://www.w3.org/2000/svg" xmlns:xlink="http://www.w3.org/1999/xlink" x="0px" y="0px" viewBox="0 0 960 560"
	 enable-background="new 0 0 960 560" xml:space="preserve">
<title>logo5</title>
<desc>Created with Sketch.</desc>
<g>
	<title>Layer 1</title>
	<g id="Page-1" sketch:type="MSPage">
		<g id="logo5" sketch:type="MSArtboardGroup">
			<path id="Shape" sketch:type="MSShapeGroup" fill="#FFFFFF" d="M913.3,264.6c1.3,0.6,3.2,1.3,5.1,1.9c1.9,0.6,4.5,1.3,7,1.9
				c3.8,1.3,7.7,2.6,10.9,3.8c3.2,1.3,5.8,3.2,8.3,5.1c2.6,1.9,3.8,4.5,5.1,7s1.9,6.4,1.9,10.2c0,5.1-0.6,9.6-2.6,13.4
				c-1.9,3.8-4.5,6.4-7.7,8.3c-3.2,1.9-6.4,3.8-10.9,4.5c-3.8,0.6-7.7,1.3-12.2,1.3c-3.2,0-6.4,0-9.6-0.6c-3.2-0.6-6.4-1.3-10.2-1.9
				c-3.2-0.6-6.4-1.9-9.6-3.2c-3.2-1.3-5.8-2.6-8.3-3.8l10.2-21.1c2.6,1.9,5.8,3.2,9,4.5c2.6,1.3,5.8,2.6,9,3.2
				c3.2,1.3,6.4,1.3,10.2,1.3c2.6,0,4.5-0.6,5.1-1.3c1.3-0.6,1.3-1.9,1.3-2.6c0-1.3-0.6-2.6-1.3-3.2c-1.3-0.6-2.6-1.9-4.5-2.6
				c-1.9-0.6-3.8-1.3-6.4-1.9c-2.6-0.6-4.5-1.3-7.7-2.6c-3.8-1.3-7-2.6-9.6-4.5c-2.6-1.3-5.1-3.2-7-5.1c-1.9-1.9-3.2-3.8-3.8-6.4
				c-0.6-2.6-1.3-5.1-1.3-8.3c0-5.1,0.6-9,2.6-12.8c1.9-3.8,3.8-6.4,7-9c3.2-2.6,6.4-4.5,10.2-5.8c3.8-1.3,7.7-1.9,12.2-1.9
				c3.2,0,6.4,0,9,0.6c3.2,0.6,5.8,1.3,9,2.6c2.6,0.6,5.1,1.9,7.7,3.2c2.6,1.3,4.5,1.9,6.4,3.2l-10.2,19.8c-2.6-1.3-5.1-2.6-7.7-3.8
				c-1.9-1.3-4.5-1.9-7.7-2.6c-2.6-0.6-5.1-1.3-7.7-1.3c-1.9,0-3.8,0.6-5.1,1.3s-1.9,1.9-1.9,3.2s0.6,1.9,1.3,2.6
				C910.7,263.4,912,264.6,913.3,264.6L913.3,264.6z M814.1,235.2h60.8v20.5h-37.1v12.2h31.4V287h-31.4v13.4h37.8V321h-61.4
				L814.1,235.2L814.1,235.2z M746.2,279.4v42.9h-23.7v-87h18.6l34.6,44.2v-44.2h23.7v87h-19.2L746.2,279.4L746.2,279.4z
				 M700.2,309.4c-3.8,3.8-8.3,7-13.4,9.6c-5.1,2.6-10.9,3.8-16.6,3.8c-6.4,0-11.5-1.3-16.6-3.8c-5.1-2.6-9.6-5.8-12.8-10.2
				c-3.8-3.8-6.4-9-8.3-14.1c-1.9-5.1-3.2-10.9-3.2-16.6c0-5.8,1.3-11.5,3.2-16.6c1.9-5.1,5.1-10.2,9-14.1c3.8-3.8,8.3-7,13.4-9.6
				s10.9-3.8,16.6-3.8c6.4,0,11.5,1.3,16.6,3.8c5.1,2.6,9.6,5.8,12.8,10.2c3.8,3.8,6.4,9,8.3,14.1c1.9,5.1,3.2,10.9,3.2,16
				c0,5.8-1.3,10.9-3.2,16.6C707.2,301.1,704,305.6,700.2,309.4L700.2,309.4z M686.7,270.4c-0.6-2.6-1.9-5.1-3.2-7
				c-1.3-1.9-3.2-3.8-5.1-5.1c-1.9-1.3-4.5-1.9-7.7-1.9s-5.8,0.6-7.7,1.9c-1.9,1.3-3.8,3.2-5.1,5.1c-1.3,1.9-2.6,4.5-3.2,7
				s-1.3,5.8-1.3,8.3c0,3.2,0.6,5.8,1.3,8.3s1.9,5.1,3.2,7c1.3,1.9,3.2,3.8,5.8,5.1c1.9,1.3,4.5,1.9,7.7,1.9c3.2,0,5.8-0.6,7.7-1.9
				c1.9-1.3,3.8-3.2,5.1-5.1c1.3-1.9,2.6-4.5,3.2-7.7c0.6-2.6,1.3-5.8,1.3-8.3C688,275.5,687.4,273,686.7,270.4L686.7,270.4z
				 M613.8,311.4c-2.6,3.8-5.8,7-10.9,9c-4.5,1.9-10.9,3.2-18.6,3.2c-7,0-13.4-1.9-18.6-5.1l5.1-19.2c0,0,0.6,0.6,1.3,0.6
				c0.6,0.6,1.9,0.6,3.2,1.3c1.3,0.6,2.6,0.6,4.5,1.3c1.3,0.6,3.2,0.6,5.1,0.6c2.6,0,4.5-0.6,6.4-1.3c1.9-0.6,2.6-1.9,3.8-3.8
				c0.6-1.9,1.3-4.5,1.3-7c0-3.2,0.6-6.4,0.6-10.9v-44.8h23.7v44.2c0,6.4-0.6,12.8-1.3,17.9C618.2,303,616.3,307.5,613.8,311.4
				L613.8,311.4z M480.6,279.4v42.9H457v-87h18.6l34.6,44.2v-44.2h23.7v87h-19.2L480.6,279.4L480.6,279.4z M435.2,309.4
				c-3.8,3.8-8.3,7-13.4,9.6c-5.1,2.6-10.9,3.8-16.6,3.8c-6.4,0-11.5-1.3-16.6-3.8c-5.1-2.6-9.6-5.8-12.8-10.2
				c-3.8-3.8-6.4-9-8.3-14.1c-1.9-5.1-3.2-10.9-3.2-16.6c0-5.8,1.3-11.5,3.2-16.6c1.9-5.1,5.1-10.2,9-14.1c3.8-3.8,8.3-7,13.4-9.6
				s10.9-3.8,16.6-3.8c6.4,0,11.5,1.3,16.6,3.8s9.6,5.8,12.8,10.2c3.8,3.8,6.4,9,8.3,14.1s3.2,10.9,3.2,16c0,5.8-1.3,10.9-3.2,16.6
				C441.6,301.1,438.4,305.6,435.2,309.4L435.2,309.4z M421.1,270.4c-0.6-2.6-1.9-5.1-3.2-7c-1.3-1.9-3.2-3.8-5.1-5.1
				c-1.9-1.3-4.5-1.9-7.7-1.9c-3.2,0-5.8,0.6-7.7,1.9c-1.9,1.3-3.8,3.2-5.1,5.1c-1.3,1.9-2.6,4.5-3.2,7s-1.3,5.8-1.3,8.3
				c0,3.2,0.6,5.8,1.3,8.3c0.6,2.6,1.9,5.1,3.2,7c1.3,1.9,3.2,3.8,5.8,5.1c1.9,1.3,4.5,1.9,7.7,1.9c3.2,0,5.8-0.6,7.7-1.9
				c1.9-1.3,3.8-3.2,5.1-5.1c1.3-1.9,2.6-4.5,3.2-7.7c0.6-2.6,1.3-5.8,1.3-8.3C422.4,275.5,422.4,273,421.1,270.4L421.1,270.4z
				 M335.4,322.2l-16.6-26.9h-9v26.9h-23.7v-87h39.7c4.5,0,8.3,0.6,11.5,2.6c3.8,1.9,6.4,3.8,9,7c2.6,2.6,4.5,5.8,5.8,9.6
				c1.3,3.8,1.9,7,1.9,10.9c0,5.1-1.3,9.6-3.2,14.1c-1.9,4.5-5.1,7.7-9,10.9l19.2,32L335.4,322.2L335.4,322.2z M329,258.9
				c-1.3-1.3-3.2-2.6-4.5-2.6h-14.1v18.6h14.7c1.3,0,2.6-0.6,3.8-2.6c1.3-1.9,1.9-3.8,1.9-7C330.9,262.7,330.2,260.2,329,258.9
				L329,258.9z"/>
			<path id="Shape_1_" sketch:type="MSShapeGroup" fill="#FFFFFF" d="M25,414.4v-16.6h212.5V185.3h16.6v229.1H25L25,414.4z
				 M8.3,386.9V168.6h217.6v16.6v202.2H25H8.3V386.9z M182.4,297.3c-0.6,5.1-2.6,10.2-4.5,14.1c-2.6,3.8-5.8,7-10.9,9
				c-4.5,1.9-10.9,3.2-18.6,3.2c-7,0-13.4-1.9-18.6-5.1l5.1-19.2c0,0,0.6,0.6,1.3,0.6c0.6,0.6,1.9,0.6,3.2,1.3
				c1.3,0.6,2.6,0.6,4.5,1.3c1.3,0.6,3.2,0.6,5.1,0.6c2.6,0,4.5-0.6,6.4-1.3c1.3-0.6,2.6-1.9,3.8-3.8c0.6-1.9,1.3-4.5,1.3-7
				c0-3.2,0.6-6.4,0.6-10.9v-44.8H185v44.2C183,286.4,183,292.2,182.4,297.3L182.4,297.3z M101.8,322.2l-16.6-26.9h-9v26.9H52.5v-87
				h39.7c4.5,0,8.3,0.6,11.5,2.6c3.8,1.9,6.4,3.8,9,7c2.6,2.6,4.5,5.8,5.8,9.6c1.3,3.8,1.9,7,1.9,10.9c0,5.1-1.3,9.6-3.2,14.1
				c-1.9,4.5-5.1,7.7-9,10.9l19.2,32L101.8,322.2L101.8,322.2z M94.7,258.9c-1.3-1.3-3.2-2.6-4.5-2.6H76.2v18.6h14.7
				c1.3,0,2.6-0.6,3.8-2.6c1.3-1.9,1.9-3.8,1.9-7C97.3,262.7,96.6,260.2,94.7,258.9z"/>
		</g>
	</g>
</g>
</svg>
