<?xml version="1.0" encoding="utf-8"?>
<!-- Generator: Adobe Illustrator 18.0.0, SVG Export Plug-In . SVG Version: 6.00 Build 0)  -->
<!DOCTYPE svg PUBLIC "-//W3C//DTD SVG 1.1//EN" "http://www.w3.org/Graphics/SVG/1.1/DTD/svg11.dtd">
<svg version="1.1" id="Layer_1" xmlns:sketch="http://www.bohemiancoding.com/sketch/ns"
	 xmlns="http://www.w3.org/2000/svg" xmlns:xlink="http://www.w3.org/1999/xlink" x="0px" y="0px" viewBox="0 0 960 560"
	 enable-background="new 0 0 960 560" xml:space="preserve">
<title>logo1</title>
<desc>Created with Sketch.</desc>
<g>
	<path fill="#FFFFFF" d="M369.9,212.8c12.2,0,22.4-5.1,31.4-14.7l-10.9-11.5c-5.8,7-12.8,10.2-21.1,10.2c-6.4,0-11.5-1.9-16-6.4
		c-4.5-4.5-6.4-10.2-6.4-17.3c0-7,2.6-12.8,7-17.3c4.5-4.5,10.2-6.4,16.6-6.4c8.3,0,15.4,3.8,20.5,10.2l10.9-12.2
		c-8.3-9.6-19.2-14.7-32-14.7c-11.5,0-21.1,3.8-28.8,11.5c-8.3,7.7-12.2,17.9-12.2,28.8s3.8,20.5,11.5,28.2S357.8,212.8,369.9,212.8
		z"/>
	<rect x="478.7" y="134.7" fill="#FFFFFF" width="17.3" height="77.4"/>
	<path fill="#FFFFFF" d="M0,426.6h295V134.1H0V426.6z M153.6,261.4h10.9v4.5c3.2-3.2,6.4-5.1,10.2-5.1c2.6,0,4.5,0.6,6.4,1.9
		c1.9,1.3,3.2,3.2,4.5,5.1c1.3-2.6,3.2-3.8,5.8-5.1c2.6-1.3,5.1-1.9,7.7-1.9c4.5,0,8.3,1.3,10.9,3.8c2.6,2.6,3.8,6.4,3.8,11.5v23
		h-10.9v-20.5c0-5.8-1.9-9-6.4-9c-1.9,0-3.8,0.6-5.8,2.6c-1.3,1.3-2.6,3.8-2.6,6.4v20.5h-10.9v-20.5c0-3.2-0.6-5.1-1.3-6.4
		c-0.6-1.3-2.6-1.9-4.5-1.9c-1.9,0-3.8,0.6-5.8,2.6c-1.3,1.3-2.6,3.8-2.6,6.4v19.8h-9.6V261.4z M120.3,262.1h4.5v-11.5h10.9v11.5h9
		v7.7h-9v16.6c-0.6,1.3,0,2.6,0.6,3.2c0.6,0.6,1.9,1.3,2.6,1.3c1.9,0,3.8-0.6,5.1-2.6l3.8,7.7c-3.2,3.2-7,4.5-10.2,4.5
		c-3.8,0-7-1.3-9-3.8c-2.6-2.6-3.8-5.8-3.8-9.6v-17.3h-4.5V262.1z M85.1,267.2c3.8-3.8,9-5.8,14.1-5.8c2.6,0,5.8,0.6,8.3,1.9
		c2.6,1.3,5.1,2.6,7.7,5.1l-5.8,7c-1.3-1.3-2.6-2.6-4.5-3.2c-1.9-0.6-3.8-1.3-5.1-1.3c-2.6,0-5.1,0.6-7,2.6s-3.2,4.5-3.2,7.7
		c0,3.2,1.3,5.8,3.2,7.7c1.9,1.9,4.5,1.9,7,1.9c3.8,0,7-1.9,9.6-5.1l6.4,7c-5.1,5.1-10.2,7.7-16,7.7c-5.8,0-10.2-1.9-14.7-5.1
		c-3.8-3.8-5.8-8.3-5.8-14.1S81.3,271,85.1,267.2z"/>
	<polygon fill="#FFFFFF" points="465.9,196.8 432.6,196.8 432.6,134.7 415.4,134.7 415.4,134.7 415.4,212.2 465.9,212.2 	"/>
	<polygon fill="#FFFFFF" points="542.7,257 542.7,241.6 486.4,241.6 486.4,319 544,319 544,303.7 503.7,303.7 503.7,287.7 
		538.2,287.7 538.2,273 503.7,273 503.7,257 	"/>
	<polygon fill="#FFFFFF" points="467.2,319 467.2,241.6 449.9,241.6 449.9,273.6 419.2,273.6 419.2,241.6 401.9,241.6 401.9,319 
		419.2,319 419.2,289 449.9,289 449.9,319 	"/>
	<path fill="#FFFFFF" d="M677.8,204.5c3.8-3.8,5.8-9,5.8-14.1s-1.9-9-4.5-12.2c-2.6-3.2-6.4-5.1-11.5-6.4c1.3-0.6,1.9-1.3,2.6-1.3
		c0,0,1.3-0.6,2.6-1.9c3.8-3.2,5.8-7.7,5.8-13.4c0-5.1-1.9-9.6-5.1-13.4c-1.9-1.9-4.5-3.8-8.3-5.1c-3.8-1.3-8.3-1.9-13.4-1.9h-30.1
		v77.4h33.9C666.2,212.2,673.3,209.6,677.8,204.5z M638.7,149.4h8.3c5.1,0,9,0.6,10.9,1.9c1.9,1.3,3.2,3.2,3.2,7
		c0,3.2-0.6,5.1-3.2,6.4c-2.6,0.6-5.8,1.3-10.9,1.3h-8.3V149.4z M638.7,197.4v-17.9H649c5.8,0,10.2,0.6,12.8,1.9
		c2.6,1.3,3.8,3.8,3.8,7c0,3.2-1.3,5.8-3.8,7c-1.9,1.3-5.8,1.9-10.9,1.9H638.7z"/>
	<path fill="#FFFFFF" d="M792.3,348.5l-33.9,77.4H777l7-16.6h32.6l7.7,16.6h18.6L809,348.5H792.3z M791,393.9l9.6-22.4l9.6,22.4H791
		z"/>
	<polygon fill="#FFFFFF" points="761.6,349.1 700.2,349.1 700.2,363.8 721.9,363.8 721.9,425.9 739.2,425.9 739.8,425.9 
		739.8,363.8 761.6,363.8 	"/>
	<polygon fill="#FFFFFF" points="670.1,398.4 631.7,348.5 615.7,348.5 615.7,425.9 633,425.9 633,377.3 670.1,425.9 687.4,425.9 
		687.4,348.5 670.1,348.5 	"/>
	<polygon fill="#FFFFFF" points="942.7,348.5 942.7,398.4 904.3,348.5 888.3,348.5 888.3,425.9 905.6,425.9 905.6,377.3 
		942.7,425.9 942.7,425.9 960,425.9 960,348.5 	"/>
	<polygon fill="#FFFFFF" points="350.1,319 367.4,319 367.4,257 389.1,257 389.8,257 389.8,241.6 328.3,241.6 328.3,257 350.1,257 	
		"/>
	<rect x="851.2" y="348.5" fill="#FFFFFF" width="17.3" height="77.4"/>
	<polygon fill="#FFFFFF" points="377.6,391.4 357.8,348.5 334.1,348.5 334.1,426.6 351.4,426.6 351.4,377.9 372.5,420.2 
		382.7,420.2 403.8,377.9 403.8,426.6 421.1,426.6 421.1,349.1 397.4,349.1 	"/>
	<polygon fill="#FFFFFF" points="558.7,177 538.9,134.7 515.2,134.7 515.2,212.2 532.5,212.2 532.5,163.5 553.6,205.8 563.8,205.8 
		585,163.5 585,163.5 585,163.5 585,163.5 585,212.2 602.2,212.2 602.2,134.7 578.6,134.7 	"/>
	<path fill="#FFFFFF" d="M476.8,347.2c-11.5,0-21.1,3.8-28.8,11.5c-7.7,7-11.5,17.3-11.5,28.2s3.8,20.5,11.5,28.2
		c7.7,7.7,17.3,11.5,28.8,11.5s21.1-3.8,28.8-11.5c7.7-7,11.5-17.3,11.5-28.2s-3.8-20.5-11.5-28.2
		C497.9,351,487.7,347.2,476.8,347.2z M493.4,404.2c-4.5,4.5-10.2,7-16.6,7c-6.4,0-12.2-1.9-16.6-7c-4.5-4.5-6.4-10.2-6.4-17.3
		c0-7,1.9-12.8,6.4-17.9c4.5-4.5,10.2-7,16.6-7c6.4,0,11.5,2.6,16.6,7c4.5,5.1,6.4,10.9,6.4,17.9C499.8,393.3,497.9,399,493.4,404.2
		z"/>
	<path fill="#FFFFFF" d="M580.5,391.4c0,6.4-1.9,10.9-4.5,14.7c-2.6,3.2-6.4,5.1-11.5,5.1c-4.5,0-8.3-1.3-11.5-5.1
		c-3.2-3.8-4.5-8.3-4.5-14.7v-42.9h-17.3v42.9c0,10.9,3.2,19.8,9.6,25.6c5.8,5.8,14.1,9,23.7,9c9.6,0,17.3-3.2,23.7-9
		s9.6-14.7,9.6-25.6v-42.9h-17.3V391.4z"/>
</g>
</svg>
