<?xml version="1.0" encoding="utf-8"?>
<!-- Generator: Adobe Illustrator 18.0.0, SVG Export Plug-In . SVG Version: 6.00 Build 0)  -->
<!DOCTYPE svg PUBLIC "-//W3C//DTD SVG 1.1//EN" "http://www.w3.org/Graphics/SVG/1.1/DTD/svg11.dtd">
<svg version="1.1" id="Layer_1" xmlns:sketch="http://www.bohemiancoding.com/sketch/ns"
	 xmlns="http://www.w3.org/2000/svg" xmlns:xlink="http://www.w3.org/1999/xlink" x="0px" y="0px" viewBox="0 0 960 560"
	 enable-background="new 0 0 960 560" xml:space="preserve">
<title>logo2</title>
<desc>Created with Sketch.</desc>
<g>
	<title>Layer 1</title>
	<g id="Page-1" sketch:type="MSPage">
		<g id="logo2" sketch:type="MSArtboardGroup">
			<path id="Shape" sketch:type="MSShapeGroup" fill="#FFFFFF" d="M864,401l-32-51.2v3.8v7V401h-7v-60.2h9.6l32.6,51.8
				c-0.6-5.8-0.6-9.6-0.6-12.2v-39.7h7.7V401L864,401L864,401z M743,340.2h46.1v6.4h-37.8v19.2h35.2v6.4h-35.2v21.1H791v6.4h-47.4
				v-59.5H743z M679.7,401l-24.3-60.2h8.3l16.6,42.2l3.8,10.9L688,383l16.6-42.2h8.3L688.6,401H679.7L679.7,401z M622.7,383h-27.5
				l-7,17.9h-8.3l24.3-60.2h9.6l24.3,60.2h-8.3L622.7,383L622.7,383z M612.5,356.8c-0.6-1.9-1.9-4.5-2.6-6.4l-1.3-3.8l-0.6,1.3
				c-0.6,2.6-1.9,5.1-3.2,9l-7.7,19.8h22.4L612.5,356.8L612.5,356.8z M505,340.2H551v6.4h-37.8v19.2h35.2v6.4h-35.2v21.1H553v6.4
				h-47.4v-59.5H505z M459.5,372.8h-32.6V401h-8.3v-60.2h8.3v25.6h32.6v-25.6h8.3V401h-8.3V372.8L459.5,372.8z M377.6,401
				l-24.3-28.8l-7.7,5.1v23h-8.3v-60.2h8.3v30.1l28.8-30.1h9.6l-25.6,26.2l29.4,33.9h-10.2V401z M256,340.2h46.1v6.4h-37.8v19.2
				h35.2v6.4h-35.2v21.1H304v6.4h-48V340.2L256,340.2z M174.1,340.2h46.1v6.4h-37.8v19.2h35.2v6.4h-35.2v21.1h39.7v6.4h-47.4v-59.5
				H174.1z M110.7,401.6c-6.4,0-11.5-1.3-16.6-3.8c-4.5-2.6-8.3-6.4-10.2-10.9c-2.6-4.5-3.8-10.2-3.8-16.6c0-9.6,2.6-17.3,7.7-22.4
				c5.1-5.1,12.8-8.3,22.4-8.3c6.4,0,12.2,1.3,16,3.2c4.5,2.6,7.7,5.8,9.6,10.9l-7.7,2.6c-1.9-3.2-3.8-5.8-7-7.7
				c-3.2-1.3-7-2.6-11.5-2.6c-7,0-12.2,1.9-16,6.4s-5.8,10.2-5.8,17.9c0,7.7,1.9,13.4,5.8,17.9c3.8,4.5,9.6,6.4,16,6.4
				c3.8,0,7.7-0.6,10.9-1.9c3.2-1.3,6.4-2.6,8.3-5.1v-10.9h-17.9v-7h25.6v20.5c-3.2,3.2-7,5.8-11.5,7.7
				C121,400.3,115.8,401.6,110.7,401.6z M44.8,274.2h867.8v11.5H44.8V274.2z M912.6,182.1c1.9,0.6,5.8,1.9,10.9,3.2
				c1.9,0.6,3.8,0.6,5.8,1.3c1.9,0.6,3.8,1.3,5.1,1.3c1.9,0.6,3.2,1.3,4.5,1.9s2.6,1.9,3.8,3.2c1.3,1.3,1.9,2.6,2.6,4.5
				c0.6,1.9,0.6,3.8,0.6,5.8c0,5.8-1.9,9.6-6.4,12.8s-10.2,4.5-18.6,4.5c-14.7,0-23-5.1-25.6-15.4l7.7-1.3c0.6,3.8,2.6,6.4,5.8,7.7
				c3.2,1.9,7,2.6,12.2,2.6c5.1,0,9.6-0.6,12.2-2.6c2.6-1.9,4.5-4.5,4.5-7.7c0-1.9-0.6-3.8-1.3-4.5c-0.6-1.3-1.9-1.9-3.8-3.2
				c-1.9-0.6-3.8-1.3-5.8-1.9c-2.6-0.6-4.5-1.3-7.7-1.9c-4.5-1.3-8.3-1.9-10.9-3.2s-4.5-1.9-5.8-3.8c-1.3-1.3-2.6-2.6-3.2-4.5
				s-1.3-3.8-1.3-5.8c0-5.1,1.9-9,5.8-12.2c3.8-2.6,9.6-4.5,17.3-4.5c7,0,12.2,1.3,16,3.2c3.8,1.9,6.4,5.8,7.7,10.9l-8.3,1.3
				c-0.6-3.2-2.6-5.8-5.1-7c-2.6-1.3-5.8-1.9-10.2-1.9c-5.1,0-8.3,0.6-10.9,2.6c-2.6,1.3-3.8,3.8-3.8,7c0,1.9,0.6,3.2,1.3,4.5
				C909.4,180.8,911.4,181.4,912.6,182.1z M855.7,219.8l-15.4-25h-18.6v25h-8.3v-60.2h28.2c7,0,12.2,1.3,16,4.5
				c3.8,3.2,5.8,7,5.8,12.8c0,4.5-1.3,8.3-3.8,11.5c-2.6,3.2-6.4,5.1-10.9,5.8l17.3,26.2h-10.2V219.8z M851.2,185.9
				c2.6-1.9,3.8-5.1,3.8-8.3c0-3.2-1.3-6.4-3.8-8.3c-2.6-1.9-5.8-2.6-10.2-2.6h-19.2v22.4h19.8C845.4,188.5,848.6,187.8,851.2,185.9
				L851.2,185.9z M731.5,159.7h46.1v6.4h-37.8v19.2H775v6.4h-35.2v21.1h39.7v6.4h-47.4v-59.5H731.5z M668.2,219.8l-24.3-60.2h8.3
				l16.6,42.2l3.8,10.9l3.8-10.9l16.6-42.2h8.3l-24.3,60.2H668.2L668.2,219.8z M601.6,217.3c-4.5,2.6-9.6,3.8-16,3.8
				c-6.4,0-11.5-1.3-16-3.8s-7.7-6.4-10.2-10.9c-2.6-4.5-3.8-10.2-3.8-16.6c0-9.6,2.6-17.3,7.7-22.4c5.1-5.1,12.8-8.3,21.8-8.3
				c6.4,0,11.5,1.3,16,3.8c4.5,2.6,7.7,5.8,10.2,10.9c2.6,4.5,3.8,10.2,3.8,16.6c0,6.4-1.3,11.5-3.8,16.6
				C609.9,210.9,606.1,214.7,601.6,217.3L601.6,217.3z M601.6,171.8c-3.8-4.5-9-6.4-16-6.4c-7,0-12.2,1.9-16,6.4
				c-3.8,4.5-5.8,10.2-5.8,17.9c0,7.7,1.9,13.4,5.8,17.9c3.8,4.5,9,6.4,16,6.4c7,0,12.2-1.9,16-6.4c3.8-4.5,5.8-10.2,5.8-17.9
				C607.4,182.1,605.4,176.3,601.6,171.8L601.6,171.8z M487,159.7h8.3v53.8h30.7v6.4h-38.4v-60.2H487z M407.7,168.6v3.8v7v40.3h-7
				v-60.2h9.6l32.6,51.8c-0.6-5.8-0.6-9.6-0.6-12.2v-39.7h7.7v60.2h-9.6L407.7,168.6L407.7,168.6z M337.3,221.1
				c-6.4,0-11.5-1.3-16.6-3.8c-4.5-2.6-8.3-6.4-10.2-10.9c-2.6-4.5-3.8-10.2-3.8-16.6c0-9.6,2.6-17.3,7.7-22.4s12.8-8.3,22.4-8.3
				c6.4,0,12.2,1.3,16,3.2c4.5,2.6,7.7,5.8,9.6,10.9l-7.7,2.6c-1.9-3.2-3.8-5.8-7-7.7s-7-2.6-11.5-2.6c-7,0-12.2,1.9-16,6.4
				s-5.8,10.2-5.8,17.9c0,7.7,1.9,13.4,5.8,17.9c3.8,4.5,9.6,6.4,16,6.4c3.8,0,7.7-0.6,10.9-1.9c3.2-1.3,6.4-2.6,8.3-5.1v-10.2
				h-17.9v-7h25.6v20.5c-3.2,3.2-7,5.8-11.5,7.7C347.5,219.8,342.4,221.1,337.3,221.1L337.3,221.1z M263,159.7h8.3v60.2H263V159.7
				L263,159.7z M202.9,221.1c-14.7,0-23-5.1-25.6-15.4l7.7-1.3c0.6,3.8,2.6,6.4,5.8,7.7c3.2,1.9,7,2.6,12.2,2.6s9.6-0.6,12.2-2.6
				c2.6-1.9,4.5-4.5,4.5-7.7c0-1.9-0.6-3.8-1.3-4.5c-0.6-1.3-1.9-1.9-3.8-3.2c-1.9-0.6-3.8-1.3-5.8-1.9c-2.6-0.6-4.5-1.3-7.7-1.9
				c-4.5-1.3-8.3-1.9-10.9-3.2c-2.6-1.3-4.5-1.9-5.8-3.8c-1.3-1.3-2.6-2.6-3.2-4.5c-0.6-1.9-1.3-3.8-1.3-5.8c0-5.1,1.9-9,5.8-12.2
				c3.8-2.6,9.6-4.5,17.3-4.5c7,0,12.2,1.3,16,3.2c3.8,1.9,6.4,5.8,7.7,10.9l-8.3,1.3c-0.6-3.2-2.6-5.8-5.1-7
				c-2.6-1.3-5.8-1.9-10.2-1.9c-5.1,0-8.3,0.6-10.9,2.6c-2.6,1.3-3.8,3.8-3.8,7c0,1.9,0.6,3.2,1.3,4.5c1.3,1.3,2.6,1.9,4.5,3.2
				c1.9,0.6,5.8,1.9,10.9,3.2c1.9,0.6,3.8,0.6,5.8,1.3c1.9,0.6,3.8,1.3,5.1,1.3c1.9,0.6,3.2,1.3,4.5,1.9c1.3,0.6,2.6,1.9,3.8,3.2
				c1.3,1.3,1.9,2.6,2.6,4.5c0.6,1.9,0.6,3.8,0.6,5.8c0,5.8-1.9,9.6-6.4,12.8C217,219.2,211.2,221.1,202.9,221.1L202.9,221.1z
				 M99.2,159.7h46.1v6.4h-37.8v19.2h35.2v6.4h-35.2v21.1h39.7v6.4H99.8v-59.5H99.2z M50.6,216.6c-4.5,2.6-9.6,3.8-15.4,3.8H12.8
				v-60.2h19.8c10.2,0,17.9,2.6,23.7,7.7c5.8,5.1,8.3,12.2,8.3,21.8c0,6.4-1.3,11.5-3.8,16C58.9,210.2,55,214.1,50.6,216.6
				L50.6,216.6z M50.6,172.5c-3.8-3.8-10.2-5.8-17.9-5.8H21.1v47.4h13.4c4.5,0,8.3-1.3,11.5-3.2c3.2-1.9,5.8-4.5,7.7-8.3
				s2.6-7.7,2.6-12.8C56.3,182.1,54.4,176.3,50.6,172.5L50.6,172.5z"/>
		</g>
	</g>
</g>
</svg>
