<?xml version="1.0" encoding="utf-8"?>
<!-- Generator: Adobe Illustrator 18.0.0, SVG Export Plug-In . SVG Version: 6.00 Build 0)  -->
<!DOCTYPE svg PUBLIC "-//W3C//DTD SVG 1.1//EN" "http://www.w3.org/Graphics/SVG/1.1/DTD/svg11.dtd">
<svg version="1.1" id="Layer_1" xmlns:sketch="http://www.bohemiancoding.com/sketch/ns"
	 xmlns="http://www.w3.org/2000/svg" xmlns:xlink="http://www.w3.org/1999/xlink" x="0px" y="0px" viewBox="0 0 960 560"
	 enable-background="new 0 0 960 560" xml:space="preserve">
<title>logo3</title>
<desc>Created with Sketch.</desc>
<g>
	<title>Layer 1</title>
	<g id="Page-1" sketch:type="MSPage">
		<g id="logo3" sketch:type="MSArtboardGroup">
			<g id="Shape-_x2B_-Shape" sketch:type="MSLayerGroup">
				<path id="Shape" sketch:type="MSShapeGroup" fill="#FFFFFF" d="M721.9,440.6v9.6h-39v-56.3h38.4v9.6h-27.5V417h23.7v9h-23.7
					v14.7H721.9L721.9,440.6z M643.8,450.2H633v-19.8l-20.5-36.5h12.2l14.1,26.9l14.1-26.9h11.5l-20.5,36.5V450.2L643.8,450.2z
					 M558.1,393.9h38.4v9.6H569V417h23.7v9H569v14.7h28.2v9.6h-39V393.9L558.1,393.9z M530.6,447c-1.9,1.3-3.8,2.6-6.4,3.2
					s-5.1,0.6-7.7,0.6c-4.5,0-8.3-0.6-12.8-1.9c-3.8-1.3-7.7-3.2-10.9-5.1l5.1-9.6c0.6,0.6,1.3,1.3,2.6,1.9c1.3,0.6,2.6,1.3,4.5,2.6
					c1.9,0.6,3.8,1.3,5.8,1.9c1.9,0.6,4.5,0.6,6.4,0.6c5.8,0,9-1.9,9-5.8c0-1.3-0.6-2.6-1.3-3.2s-1.9-1.3-3.2-1.9
					c-1.3-0.6-2.6-1.3-4.5-1.9s-3.8-1.3-5.8-1.9c-2.6-0.6-5.1-1.3-7-2.6c-1.9-0.6-3.8-1.9-5.1-3.2c-1.3-1.3-2.6-2.6-3.2-3.8
					c-0.6-1.3-1.3-3.2-1.3-5.8s0.6-5.1,1.3-7.7c1.3-1.9,2.6-3.8,4.5-5.8c1.9-1.3,3.8-2.6,6.4-3.2c2.6-0.6,5.1-1.3,8.3-1.3
					c3.8,0,7.7,0.6,10.9,1.9s6.4,2.6,9,4.5l-5.1,9c-0.6-0.6-1.3-0.6-1.9-1.3c-1.3-0.6-1.9-1.3-3.8-1.9c-1.3-0.6-3.2-1.3-4.5-1.3
					c-1.9-0.6-3.2-0.6-5.1-0.6c-3.2,0-5.1,0.6-7,1.9c-1.3,1.3-1.9,2.6-1.9,4.5c0,1.3,0,1.9,0.6,2.6c0.6,0.6,1.3,1.3,2.6,1.9
					c1.3,0.6,2.6,1.3,3.8,1.3c1.9,0.6,3.2,1.3,5.8,1.3c2.6,0.6,5.1,1.3,7.7,2.6c2.6,0.6,3.8,1.9,5.8,3.2c1.3,1.3,2.6,2.6,3.8,4.5
					c0.6,1.9,1.3,3.8,1.3,6.4c0,3.2-0.6,5.8-1.9,7.7C533.8,443.8,532.5,445.8,530.6,447L530.6,447z M437.1,393.9H448v46.7h28.8v9.6
					h-39.7V393.9L437.1,393.9z M377,393.9h10.9v46.7h28.8v9.6H377L377,393.9L377,393.9z M347.5,442.6c-1.9,2.6-4.5,4.5-7.7,5.8
					c-3.2,1.3-7,1.9-10.9,1.9c-4.5,0-8.3-0.6-11.5-2.6c-3.2-1.3-5.8-3.8-7.7-6.4c-1.9-2.6-3.2-5.8-4.5-9c-0.6-3.2-1.3-7-1.3-10.2
					v-28.8h10.9v28.8c0,2.6,0,4.5,0.6,7c0.6,1.9,1.3,3.8,2.6,5.8s2.6,3.2,4.5,3.8c1.9,1.3,3.8,1.3,6.4,1.3s4.5-0.6,6.4-1.3
					c1.9-1.3,3.2-2.6,4.5-3.8c1.3-1.9,1.9-3.8,2.6-5.8c0.6-1.9,0.6-4.5,0.6-7v-28.8h10.9v28.8c0,3.8-0.6,7.7-1.3,10.9
					C350.7,436.8,349.4,440,347.5,442.6L347.5,442.6z M283.5,435.5c0,2.6-0.6,4.5-1.3,6.4c-0.6,1.9-2.6,3.2-3.8,4.5
					c-1.9,1.3-3.8,1.9-5.8,2.6c-1.9,0.6-4.5,0.6-7,0.6h-27.5v-56.3h30.1c1.9,0,3.8,0.6,5.1,1.3c1.3,0.6,3.2,1.9,3.8,3.2
					c1.3,1.3,1.9,2.6,2.6,4.5c0.6,1.9,0.6,3.2,0.6,5.1c0,2.6-0.6,5.1-1.9,7.7c-1.3,2.6-3.2,4.5-5.8,5.1c3.2,0.6,5.8,2.6,7.7,5.1
					C282.2,429.1,283.5,431.7,283.5,435.5L283.5,435.5z M268.8,405.4c-1.3-1.3-2.6-1.9-4.5-1.9H249v14.1h14.7c1.9,0,3.2-0.6,4.5-1.9
					c1.3-1.3,1.9-3.2,1.9-5.1C270.1,408,269.4,406.7,268.8,405.4L268.8,405.4z M272,430.4c-0.6-0.6-0.6-1.9-1.3-2.6
					c-0.6-0.6-1.3-1.3-1.9-1.9c-0.6-0.6-1.9-0.6-2.6-0.6h-16.6V440h16c1.3,0,1.9,0,2.6-0.6s1.9-0.6,2.6-1.3c0.6-0.6,1.3-1.3,1.3-2.6
					c0.6-0.6,0.6-1.9,0.6-2.6C272.6,432.3,272,431.7,272,430.4L272,430.4z"/>
				<path id="Shape_1_" sketch:type="MSShapeGroup" fill="#FFFFFF" d="M478.7,339.5c-64,0-115.8-51.8-115.8-115.2
					c0-64,51.8-115.2,115.8-115.2S594.6,161,594.6,224.3C594.6,288.3,542.7,339.5,478.7,339.5L478.7,339.5z M478.7,153.3
					c-39.7,0-71.7,32-71.7,71.7s32,71.7,71.7,71.7s71.7-32,71.7-71.7S518.4,153.3,478.7,153.3L478.7,153.3z M478.7,241
					c-9,0-16.6-7.7-16.6-16.6c0-9,7.7-16.6,16.6-16.6c9,0,16.6,7.7,16.6,16.6C495.4,233.3,487.7,241,478.7,241L478.7,241z"/>
			</g>
		</g>
	</g>
</g>
</svg>
