<?xml version="1.0" encoding="utf-8"?>
<!-- Generator: Adobe Illustrator 18.0.0, SVG Export Plug-In . SVG Version: 6.00 Build 0)  -->
<!DOCTYPE svg PUBLIC "-//W3C//DTD SVG 1.1//EN" "http://www.w3.org/Graphics/SVG/1.1/DTD/svg11.dtd">
<svg version="1.1" id="Layer_1" xmlns:sketch="http://www.bohemiancoding.com/sketch/ns"
	 xmlns="http://www.w3.org/2000/svg" xmlns:xlink="http://www.w3.org/1999/xlink" x="0px" y="0px" viewBox="0 0 960 560"
	 enable-background="new 0 0 960 560" xml:space="preserve">
<title>logo4</title>
<desc>Created with Sketch.</desc>
<g>
	<title>Layer 1</title>
	<g id="Page-1" sketch:type="MSPage">
		<g id="logo4" sketch:type="MSArtboardGroup">
			<path id="Shape" sketch:type="MSShapeGroup" fill="#FFFFFF" d="M729.6,389.4c-0.6,0.6-2.6,1.9-3.8,1.9c-0.6,0-0.6-0.6-1.3-0.6
				c0,0,0,0,0-0.6s0.6-0.6,0.6-1.3c-4.5,0-9,3.8-9,5.1c0,0.6,3.8,0.6,8.3,2.6c1.3,0.6,1.9,1.9,1.9,3.2c0,4.5-7.7,7-11.5,7
				c-3.2,0-4.5-1.3-4.5-2.6c-1.3,1.3-3.2,2.6-5.8,2.6c-1.9,0-3.8-1.3-3.8-3.8c0-3.2,2.6-7,4.5-10.2c0-0.6,1.3-1.9,1.3-2.6l0,0
				c-1.3,0-7.7,7-9,8.3c-1.9,1.9-3.2,3.8-5.1,6.4c-0.6,0.6-0.6,1.3-1.3,1.3s-1.9-0.6-1.9-0.6s0,0,0-0.6l0,0
				c-3.2,1.9-6.4,4.5-9.6,7.7c-2.6,3.2-4.5,5.8-5.1,7c-0.6,0.6-1.3,1.3-1.9,1.3c-1.9,0-2.6-0.6-2.6-2.6c0-4.5,7-9.6,7.7-10.2
				c0.6-0.6,0.6-0.6,4.5-7.7c-3.8,3.8-7,5.8-8.3,5.8c-1.3,0-2.6-0.6-3.2-1.3c-1.9,1.3-3.8,1.9-5.8,1.9c-1.9,0-4.5-1.9-4.5-4.5
				s5.1-10.2,5.1-10.2c0-0.6-1.3-1.3-1.3-1.3c0-0.6,3.8-4.5,5.8-4.5c0.6,0,1.9,1.3,1.9,1.9c0,0.6-5.1,9-5.8,10.2
				c-0.6,1.3-1.9,2.6-1.9,3.8c0,0.6,0.6,0.6,1.3,0.6c1.9,0,3.2-1.3,4.5-3.2c1.9-7.7,12.2-13.4,16.6-13.4c1.3,0,1.9,0.6,1.9,0.6
				c1.3-1.3,2.6-1.3,3.8-1.3c0.6,0,0.6,0.6,0.6,1.3l0,0l-0.6,0.6c-2.6,3.8-6.4,9.6-10.9,17.3c1.3-1.3,5.1-4.5,9.6-7
				c1.3-2.6,3.2-5.1,4.5-7.7c0.6-1.3,1.3-2.6,1.9-3.2c0.6-1.3,2.6-1.3,3.8-1.3c0.6,0,0.6,0.6,0.6,0.6c0,1.3-2.6,4.5-3.2,5.8
				c2.6-2.6,5.8-6.4,9.6-6.4c1.3,0,1.9,0.6,1.9,1.9c0,1.3-2.6,5.1-3.8,7c-0.6,1.3-3.2,5.1-3.2,7c0,0.6,0.6,1.3,1.3,1.3
				c2.6,0,6.4-5.1,7-5.1c0.6,0,0.6,1.9,0.6,1.9l0,0l0,0c0,0,0,0,0,0.6s0.6,1.3,1.3,1.3c3.8,0,7-1.3,7-2.6c0-0.6-3.2-1.3-6.4-1.9
				c-1.3-0.6-3.2-1.3-3.2-3.2c0-5.8,10.9-9.6,14.7-9.6c3.2,0,3.2,1.9,3.2,1.9l0,0C730.2,388.2,730.2,389.4,729.6,389.4L729.6,389.4z
				 M688.6,389.4c-9.6,1.9-14.1,10.9-14.1,12.8v0.6C675.2,402.9,680.3,399,688.6,389.4L688.6,389.4z M673.9,383.7
				c-0.6,0-1.3-0.6-1.3-1.3c0-1.9,1.9-3.8,3.8-3.8c0.6,0,1.3,0.6,1.3,1.3C677.8,381.1,675.8,383.7,673.9,383.7L673.9,383.7z
				 M659.2,391.4c-0.6,0-0.6-0.6-1.3-0.6c0,0,0,0,0-0.6c0-0.6,0.6-0.6,0.6-1.3c-4.5,0-9,3.8-9,5.1c0,0.6,3.8,0.6,8.3,2.6
				c1.3,0.6,1.9,1.9,1.9,3.2c0,4.5-7.7,7-11.5,7c-3.2,0-4.5-1.9-4.5-2.6c0-0.6,0-0.6,0-1.3c-2.6,1.9-5.8,3.8-9.6,3.8
				c-2.6,0-6.4-0.6-6.4-4.5c0-2.6,2.6-4.5,4.5-5.1c-1.3-0.6-1.3-1.3-1.3-2.6c0-4.5,7.7-8.3,12.2-8.3c0.6,0,2.6,0.6,2.6,1.3
				c0,1.9-1.9,3.8-4.5,3.8c-0.6,0-0.6-0.6-0.6-1.3v-0.6c-0.6,0-1.3,0.6-1.9,0.6c-0.6,0.6-3.8,2.6-3.8,3.2h0.6c1.3,0,2.6-0.6,3.8-0.6
				h0.6c0.6,0,1.3,1.3,1.3,1.3c0,0.6-0.6,0.6-0.6,1.3c-0.6,0.6-1.3,0.6-1.9,1.3c-1.3,0.6-5.1,2.6-5.1,3.8c0,1.9,1.9,1.9,3.2,1.9
				c3.2,0,7-3.2,9-5.1h0.6c0.6,0,0.6,1.3,0.6,1.9v0.6h0.6c0.6,0,1.3,0,1.3,0.6c0,0,0,0,0,0.6s0.6,1.3,1.3,1.3c3.8,0,7-1.3,7-2.6
				c0-0.6-3.2-1.3-6.4-1.9c-1.3-0.6-3.2-1.3-3.2-3.2c0-5.8,10.9-9.6,14.7-9.6c3.2,0,3.2,1.9,3.2,1.9l0,0c0,0.6,0,1.9-0.6,1.9
				C662.4,390.7,660.5,391.4,659.2,391.4L659.2,391.4z M602.2,406.1c-5.1,0-4.5-0.6-5.1-1.3c-0.6,0-0.6-0.6-0.6-1.3
				c0-0.6,0-1.3,0-1.3c1.3-3.8,13.4-21.1,16-25c0,0,0.6-0.6,2.6-0.6c1.3,0,1.9,0,1.9,0.6c0,0,0,0.6-0.6,1.3
				c-2.6,3.8-15.4,23.7-15.4,24.3c0,0,0.6,0,1.3,0c11.5,0,25-11.5,25-18.6c0-4.5-3.8-8.3-11.5-8.3c-5.8,0-10.2,2.6-11.5,3.8
				c-0.6,0.6-0.6,0.6-0.6,1.3l0,0c0.6,0,0.6,0,1.3,0l0,0c0,0,0,0-0.6,0.6c-0.6,0.6-0.6,0.6-1.3,0.6c-1.3-0.6-1.9,0-1.9,0h-0.6l0,0
				c-0.6,0-1.9-0.6-1.9-1.9c0-3.8,7-9,17.9-9c10.2,0,16,4.5,16,10.9C632.3,394.6,615,406.1,602.2,406.1L602.2,406.1z M577.3,392
				c-0.6,0-0.6-0.6-0.6-1.3v-0.6c-0.6,0-1.3,0.6-1.9,0.6c-0.6,0.6-3.8,2.6-3.8,3.2h0.6c1.3,0,2.6-0.6,3.8-0.6h0.6
				c0.6,0,1.3,1.3,1.3,1.3c0,0.6-0.6,0.6-0.6,1.3c-0.6,0.6-1.3,0.6-1.9,1.3c-1.3,0.6-5.1,2.6-5.1,3.8c0,1.9,1.9,1.9,3.2,1.9
				c3.2,0,7-3.2,9-5.1h0.6c0.6,0,0.6,1.3,0.6,1.9c0,0.6,0,0.6,0,1.3c0,0.6-0.6,0.6-1.3,1.3c-2.6,1.9-5.8,4.5-9.6,4.5
				c-2.6,0-6.4-0.6-6.4-4.5c0-2.6,2.6-4.5,4.5-5.1c-1.3-0.6-1.3-1.3-1.3-2.6c0-4.5,7.7-8.3,12.2-8.3c0.6,0,2.6,0.6,2.6,1.3
				C581.8,390.1,579.2,392,577.3,392L577.3,392z M562.6,395.8c-1.3,0-1.3-0.6-1.3-1.9c0-1.3,0.6-2.6,1.9-3.8l0,0c-1.3,0-7.7,7-9,8.3
				c-1.9,1.9-3.2,3.8-5.1,6.4c0,0.6-0.6,1.3-1.3,1.3c0,0-1.3,0-1.9-0.6c-1.3,0.6-2.6,1.3-3.8,1.3c-1.3,0-3.2-0.6-3.2-3.2
				c0-1.3,0-2.6,1.3-4.5c-2.6,3.2-6.4,7.7-9,7.7c-1.3,0-2.6-1.3-2.6-2.6c-1.3,1.3-3.2,2.6-5.1,2.6h-0.6c-1.9-0.6-3.2-1.3-3.2-3.2
				c-1.9,1.9-4.5,3.2-6.4,3.2c-1.3,0-3.2-1.3-3.8-2.6c-1.3,1.3-3.2,2.6-5.1,2.6s-3.8-1.3-3.8-3.8c0-3.2,2.6-7,4.5-10.2
				c0-0.6,1.3-1.9,1.3-2.6l0,0c-1.3,0-7.7,7-9,8.3c-1.9,1.9-3.2,3.8-5.1,6.4c-0.6,0.6-0.6,1.3-1.3,1.3s-1.9-0.6-1.9-0.6s0,0,0-0.6
				s0.6-1.9,1.3-3.2c1.9-3.8,3.8-7,6.4-10.9c0.6-1.3,1.3-2.6,1.9-3.2c0.6-1.3,2.6-1.3,3.8-1.3c0.6,0,0.6,0.6,0.6,0.6
				c0,1.3-2.6,4.5-3.2,5.8c2.6-2.6,5.8-6.4,9.6-6.4c1.3,0,1.9,0.6,1.9,1.9s-2.6,5.1-3.8,7c-0.6,1.3-3.2,5.1-3.2,7
				c0,0.6,0.6,1.3,1.3,1.3c1.3,0,3.2-1.9,5.1-3.2c1.3-3.2,4.5-7.7,4.5-7.7c0-0.6-1.3-1.3-1.3-1.3c0-0.6,3.8-4.5,5.8-4.5
				c0.6,0,1.9,1.3,1.9,1.9c0,0.6-5.1,9-5.8,10.2c-0.6,1.3-1.9,2.6-1.9,3.8c0,0.6,0.6,0.6,1.3,0.6c2.6,0,5.1-3.2,6.4-4.5
				c1.9-5.1,6.4-12.2,7.7-14.7l-3.8,0.6l0,0c-0.6,0-1.9,0-1.9-0.6h-0.6c-0.6,0-1.3-0.6-1.3-1.3c0-1.9,1.9-3.8,3.8-3.8
				c0.6,0,1.3,0.6,1.3,1.3v0.6h0.6c1.3,0,1.9,0,3.2,0c1.9,0,0,0,1.9,0c1.3-1.3,1.9-3.2,3.2-4.5c0-0.6,0.6-0.6,0.6-0.6
				c0.6,0,0.6,0,1.3,0c0.6,0,0.6,0,1.3,0l0.6,0.6c0,0.6-1.9,3.2-2.6,3.8c0,0,1.9,0,2.6,0s1.3,0,1.3,0c0.6,0,0.6,0.6,1.3,1.3l0.6,0.6
				c0,1.3-1.3,1.3-1.9,1.3c-1.9,0-3.8,0.6-6.4,0.6c-1.9,2.6-9,14.7-9,17.3c0,0.6,0,0.6,0,0.6c0,0.6,0.6,1.3,1.3,1.3
				c1.3,0,3.2-1.9,5.1-3.2c1.3-2.6,2.6-5.8,3.8-7c2.6-3.8,3.2-5.8,4.5-5.8c0.6,0,1.9,1.3,1.9,1.3c0,0.6-6.4,10.9-6.4,13.4v0.6
				c1.9,0,10.2-10.2,10.9-11.5c0.6-1.9,1.9-3.2,2.6-3.2c0.6,0,1.3-0.6,2.6-0.6c0,0,0,0,0.6,0c0,0,0.6,0.6,0.6,1.3l0,0
				c-1.9,3.8-3.2,5.8-3.8,7c-0.6,1.3-2.6,5.8-2.6,7.7c0,0.6,0,1.3,0.6,1.3c1.9,0,3.8-2.6,5.1-3.8c1.3-2.6,3.2-5.1,4.5-8.3
				c0.6-1.3,1.3-2.6,1.9-3.2c0.6-1.3,2.6-1.3,3.8-1.3c0.6,0,0.6,0.6,0.6,0.6c0,1.3-2.6,4.5-3.2,5.8c1.9-2.6,5.8-6.4,9.6-6.4
				c1.3,0,1.9,0.6,1.9,1.9s-2.6,5.8-3.8,7C563.8,395.8,563.2,395.8,562.6,395.8L562.6,395.8z M487.7,395.8c-1.3,0-1.3-0.6-1.3-1.9
				c0-1.3,0.6-2.6,1.9-3.8l0,0c-1.3,0-7.7,7-9,8.3c-1.9,1.9-3.2,3.8-5.1,6.4c0,0.6-0.6,1.3-1.3,1.3c0,0-1.3,0-1.9-0.6
				c-1.3,0.6-2.6,1.3-3.8,1.3c-1.3,0-3.2-0.6-3.2-3.2c0-1.3,0-2.6,1.3-4.5c-2.6,3.2-6.4,7.7-9,7.7c-1.9,0-3.2-1.9-3.2-3.2
				c0-3.2,3.2-9,4.5-10.9c2.6-3.8,3.2-5.8,4.5-5.8c0.6,0,1.9,1.3,1.9,1.3c0,0.6-6.4,10.9-6.4,13.4v0.6c1.9,0,10.2-10.2,10.9-11.5
				c0.6-1.9,1.9-3.2,2.6-3.2s1.3-0.6,2.6-0.6c0,0,0,0,0.6,0c0,0,0.6,0.6,0.6,1.3l0,0c-1.9,3.8-3.2,5.8-3.8,7s-2.6,5.8-2.6,7.7
				c0,0.6,0,1.3,0.6,1.3c1.9,0,3.8-2.6,5.1-3.8c1.3-2.6,3.2-5.1,4.5-8.3c0.6-1.3,1.3-2.6,1.9-3.2c0.6-1.3,2.6-1.3,3.8-1.3
				c0.6,0,0.6,0.6,0.6,0.6c0,1.3-2.6,4.5-3.2,5.8c1.9-2.6,5.8-6.4,9.6-6.4c1.3,0,1.9,0.6,1.9,1.9c0,1.3-2.6,5.8-3.8,7
				C488.3,395.8,488.3,395.8,487.7,395.8L487.7,395.8z M458.9,375.4c-1.9,2.6-5.1,6.4-8.3,12.2c1.3,0,2.6,0,3.8,0
				c1.3,0,1.3,0.6,1.3,1.3s-0.6,1.3-1.3,1.9s-0.6,1.3-1.3,1.3c-0.6,0-0.6,0-0.6,0c-0.6,0-1.3,0-2.6,0c-0.6,0-1.3,0-1.3,0
				c-3.2,5.1-8.3,13.4-8.3,13.4c-0.6,0.6-0.6,1.3-1.9,1.3h-0.6c-1.3,0-1.9-0.6-1.9-1.3v-0.6c0.6-1.3,5.1-8.3,7.7-12.8
				c-3.2,0-6.4,0.6-7.7,0.6c0,0-0.6,0-1.3,0s-0.6-0.6-0.6-0.6s0,0,0-0.6c0.6-1.3,0.6-1.3,1.3-1.9c0-0.6,1.3-1.3,1.9-1.3
				s4.5-0.6,9.6-0.6c1.9-2.6,5.1-7.7,7.7-10.9c-1.9,0.6-5.1,0.6-10.9,0.6c-7,0-9-1.9-9-3.8c0-1.3,1.3-2.6,3.8-2.6
				c1.3,0,1.9,0,1.9,0.6c0,0,0,0-0.6,0c-1.3,0-1.3,0.6-1.3,1.3s1.3,1.3,7,1.3s9.6-0.6,12.8-0.6c1.9-1.9,4.5-3.2,7-3.2
				c1.3,0,1.9,0.6,1.9,0.6l0.6,0.6C467.2,372.2,464.6,375.4,458.9,375.4L458.9,375.4z M464.6,370.9c-0.6,0-0.6,0-0.6,0.6
				C464,370.9,464.6,370.9,464.6,370.9L464.6,370.9z M412.8,392c-0.6,0-0.6-0.6-0.6-1.3v-0.6c-0.6,0-1.3,0.6-1.9,0.6
				c-0.6,0.6-3.8,2.6-3.8,3.2h0.6c1.3,0,2.6-0.6,3.8-0.6h0.6c0.6,0,1.3,1.3,1.3,1.3c0,0.6-0.6,0.6-0.6,1.3c-0.6,0.6-1.3,0.6-1.9,1.3
				c-1.3,0.6-5.1,2.6-5.1,3.8c0,1.9,1.9,1.9,3.2,1.9c3.2,0,7-3.2,9-5.1h0.6c0.6,0,0.6,1.3,0.6,1.9c0,0.6,0,0.6,0,1.3
				c0,0.6-0.6,0.6-1.3,1.3c-2.6,1.9-5.8,4.5-9.6,4.5c-2.6,0-5.1-0.6-6.4-2.6c-1.3,1.3-3.2,2.6-5.1,2.6c-1.3,0-3.2-0.6-3.2-3.2
				c0-1.3,0-2.6,1.3-4.5c-2.6,3.2-6.4,7.7-9,7.7c-1.9,0-3.2-1.9-3.2-3.2c0-3.2,3.2-9,4.5-10.9c2.6-3.8,3.2-5.8,4.5-5.8
				c0.6,0,1.9,1.3,1.9,1.3c0,0.6-6.4,10.9-6.4,13.4v0.6c1.9,0,10.2-10.2,10.9-11.5c0.6-1.9,1.9-3.2,2.6-3.2c0.6,0,1.3-0.6,2.6-0.6
				c0,0,0,0,0.6,0c0,0,0.6,0.6,0.6,1.3l0,0c-1.9,3.8-3.2,5.8-3.8,7c-0.6,1.3-2.6,5.8-2.6,7.7c0,0.6,0,1.3,0.6,1.3
				c1.9,0,5.1-4.5,5.8-4.5h0.6c0,0,0,0,0.6,0c0.6-0.6,1.3-0.6,1.9-1.3c-1.3-0.6-1.3-1.3-1.3-2.6c0-4.5,7.7-8.3,12.2-8.3
				c0.6,0,2.6,0.6,2.6,1.3C417.3,390.1,415.4,392,412.8,392L412.8,392z M378.2,397.8c-3.2,5.8-5.8,9.6-8.3,16
				c0.6-0.6,2.6-3.2,3.2-3.2c1.3,0,1.3,0.6,1.9,1.3c0,0,0,0,0,0.6s-1.3,1.9-1.9,2.6c-1.3,1.3-5.8,5.8-7,5.8c-1.3,0-2.6-1.3-2.6-2.6
				c0-3.2,6.4-13.4,8.3-16.6c-1.9,1.9-5.8,5.1-8.3,5.1c-1.3,0-2.6-0.6-3.2-1.9c-1.9,1.3-3.8,1.9-5.8,1.9c-1.3,0-3.2-1.3-3.8-2.6
				c-1.3,1.3-3.2,2.6-5.1,2.6s-3.8-1.3-3.8-3.8c0-3.2,2.6-7,4.5-10.2c0-0.6,1.3-1.9,1.3-2.6l0,0c-1.3,0-7.7,7-9,8.3
				c-1.9,1.9-3.2,3.8-5.1,6.4c-0.6,0.6-0.6,1.3-1.3,1.3c-0.6,0-1.9-0.6-1.9-0.6s0,0,0-0.6s0.6-1.9,1.3-3.2c1.9-3.8,3.8-7,6.4-10.9
				c0.6-1.3,1.3-2.6,1.9-3.2c0.6-1.3,2.6-1.3,3.8-1.3c0.6,0,0.6,0.6,0.6,0.6c0,1.3-2.6,4.5-3.2,5.8c2.6-2.6,5.8-6.4,9.6-6.4
				c1.3,0,1.9,0.6,1.9,1.9s-2.6,5.1-3.8,7c-0.6,1.3-3.2,5.1-3.2,7c0,0.6,0.6,1.3,1.3,1.3c1.3,0,3.2-1.9,5.1-3.2
				c1.3-3.2,4.5-7.7,4.5-7.7c0-0.6-1.3-1.3-1.3-1.3c0-0.6,3.8-4.5,5.8-4.5c0.6,0,1.9,1.3,1.9,1.9c0,0.6-5.1,9-5.8,10.2
				c-0.6,1.3-1.9,2.6-1.9,3.8c0,0.6,0.6,0.6,1.3,0.6c1.3,0,3.2-1.3,4.5-2.6c1.3-5.1,7-10.2,10.9-12.2c1.3-0.6,3.2-1.9,5.1-1.9
				c1.3,0,2.6,0,3.2,1.3c0,0,0-0.6,0.6-0.6c0.6-0.6,1.9-1.3,2.6-1.3c0.6,0,0.6,0.6,0.6,1.3v0.6C382.1,391.4,379.5,394.6,378.2,397.8
				L378.2,397.8z M377,389.4c-2.6,0-6.4,3.2-7.7,4.5c-1.3,1.3-4.5,5.8-4.5,7.7c0,0,0,0.6,0.6,0.6c1.9,0,7-5.1,8.3-6.4
				c1.9-1.9,3.2-3.8,5.1-6.4C377.6,390.1,377.6,389.4,377,389.4L377,389.4z M363.5,383.7c-0.6,0-1.3-0.6-1.3-1.3
				c0-1.9,1.9-3.8,3.8-3.8c0.6,0,1.3,0.6,1.3,1.3C367.4,381.1,365.4,383.7,363.5,383.7L363.5,383.7z M322.6,400.3L322.6,400.3
				c0,0,2.6-1.3,4.5-3.2c1.9-1.9,3.8-3.8,5.1-4.5l0,0c0.6,0,0.6,1.3,0.6,2.6c0,0.6,0,1.3,0,1.9c-1.3,3.8-10.2,9.6-14.1,9.6
				c-1.3,0-2.6-1.3-2.6-2.6c0-3.2,4.5-10.2,8.3-16c-5.8,7-15.4,18.6-21.8,18.6c-2.6,0-3.8-1.9-3.8-3.8c0-3.2,2.6-7.7,5.1-12.2
				c2.6-4.5,5.8-8.3,8.3-11.5c-1.3,1.3-3.8,3.2-5.1,3.2s-2.6-1.3-2.6-2.6s1.9-2.6,2.6-2.6h0.6c0,0-0.6,0.6-0.6,1.3l0,0
				c1.3,0,6.4-3.2,9.6-5.8c0.6-0.6,0.6-0.6,1.3-0.6c0.6,0,1.3,0,1.3,0.6c0,0,1.3,0.6,1.3,1.3v0.6c-3.2,4.5-10.9,14.7-13.4,18.6
				c-1.3,2.6-3.8,7-3.8,9c0,0.6,0,0.6,0.6,0.6s5.8-3.8,11.5-9.6c6.4-5.8,12.8-14.1,17.9-19.2c0.6-0.6,0.6-0.6,1.3-0.6l0,0
				c0.6,0,0,0,1.9,0c1.9,0,2.6,0,2.6,0.6c0,0,0,0.6-0.6,1.3C338.6,374.7,322.6,397.1,322.6,400.3L322.6,400.3z"/>
			<path id="Shape_1_" sketch:type="MSShapeGroup" fill="#FFFFFF" d="M921,275.5c-3.8,0-6.4,0.6-8.3,2.6c-1.9,1.9-3.2,3.8-3.2,7
				c0,2.6,1.3,5.1,3.8,7c2.6,1.9,8.3,3.8,17.3,5.8c9,2.6,16,5.8,21.1,10.2s7.7,11.5,7.7,19.8c0,9-3.2,16-9.6,21.1
				c-6.4,5.8-14.7,8.3-25.6,8.3c-15.4,0-28.8-5.8-41-17.3l12.8-16c10.2,9,19.8,14.1,28.8,14.1c3.8,0,7-0.6,9.6-2.6
				c2.6-1.9,3.2-3.8,3.2-7c0-3.2-1.3-5.1-3.8-7c-2.6-1.9-7-3.2-14.1-5.1c-11.5-2.6-19.2-6.4-24.3-10.9c-5.1-4.5-7.7-10.9-7.7-20.5
				s3.2-16.6,9.6-21.8c6.4-5.1,14.7-7.7,24.3-7.7c6.4,0,12.8,1.3,19.2,3.2c6.4,1.9,12.2,5.1,16.6,9.6l-10.9,16
				C938.2,278.7,929.9,275.5,921,275.5L921,275.5z M847.4,356.8l-21.1-31.4h-14.7v31.4h-21.8v-97.9h36.5c14.7,0,25.6,2.6,32,7.7
				c6.4,5.1,9.6,13.4,9.6,25c0,16-6.4,25.6-18.6,30.7l24.3,35.2h-26.2V356.8z M841.6,280.6c-2.6-1.9-7.7-3.2-14.7-3.2h-16v28.8h16
				c7,0,12.2-1.3,14.7-3.8c2.6-2.6,3.8-6.4,3.8-11.5C846.1,286.4,844.2,282.6,841.6,280.6L841.6,280.6z M720.6,358.1
				c-14.1,0-26.2-5.1-35.8-14.7c-9.6-9.6-14.7-21.8-14.7-35.8s5.1-26.2,14.7-35.8c9.6-9.6,21.8-14.7,35.8-14.7
				c14.1,0,26.2,5.1,35.8,14.7c9.6,9.6,14.7,21.8,14.7,35.8c0,14.1-5.1,26.2-14.7,35.8C746.9,353,734.7,358.1,720.6,358.1
				L720.6,358.1z M741.1,285.1c-5.8-6.4-12.2-9-20.5-9c-8.3,0-14.7,3.2-20.5,9c-5.8,6.4-8.3,13.4-8.3,22.4c0,9,2.6,16,8.3,22.4
				c5.8,6.4,12.2,9,20.5,9s14.7-3.2,20.5-9c5.8-6.4,8.3-13.4,8.3-22.4C749.4,298.6,746.9,290.9,741.1,285.1L741.1,285.1z M660.5,225
				h-40.3l-9,21.1h-22.4l41.6-97.9h21.1l41.6,97.9h-23L660.5,225L660.5,225z M640.6,177l-12.2,28.2h24.3L640.6,177L640.6,177z
				 M558.7,246.1l-21.1-31.4h-14.7v31.4h-21.8v-97.9h36.5c14.7,0,25.6,2.6,32,7.7c6.4,5.1,9.6,13.4,9.6,25c0,16-6.4,25.6-18.6,30.7
				l24.3,35.2h-26.2V246.1z M553,169.3c-2.6-1.9-7.7-3.2-14.7-3.2h-16v28.8h16c7,0,12.2-1.3,14.7-3.8s3.8-6.4,3.8-11.5
				C556.8,175,555.5,171.8,553,169.3L553,169.3z M529.3,271.7c9,8.3,14.1,20.5,14.1,35.8c0,15.4-4.5,27.5-13.4,36.5
				c-9,9-22.4,13.4-41,13.4h-32.6v-98.6h33.9C506.9,258.9,520.3,263.4,529.3,271.7L529.3,271.7z M489,278.1h-12.2v59.5h13.4
				c9.6,0,17.3-2.6,22.4-7.7c5.1-5.1,7.7-12.2,7.7-21.8c0-9.6-2.6-17.3-7.7-22.4C508.2,280.6,500.5,278.1,489,278.1L489,278.1z
				 M457.6,225h-40.3l-9,21.1h-23l41.6-97.9H448l41.6,97.9h-23L457.6,225L457.6,225z M437.8,177l-12.2,28.2h24.3L437.8,177
				L437.8,177z M343.7,166.7c-8.3,0-14.7,2.6-20.5,8.3c-5.8,5.1-8.3,12.8-8.3,21.8c0,9,2.6,16.6,8.3,21.8c5.1,5.8,12.2,8.3,19.8,8.3
				c10.9,0,19.2-4.5,26.2-12.8l14.1,14.7c-10.9,12.8-23.7,18.6-38.4,18.6s-26.9-4.5-36.5-14.1s-14.7-21.8-14.7-35.8
				c0-14.7,5.1-26.9,14.7-36.5c8.3-10.2,19.8-15.4,33.9-15.4c16,0,28.8,6.4,39.7,18.6l-13.4,15.4
				C362.2,170.6,353.9,166.7,343.7,166.7L343.7,166.7z M319.4,356.8h-21.8v-97.9h21.8V356.8L319.4,356.8z M410.2,321.6v-63.4H432
				v98.6h-21.8l-45.4-61.4v61.4H343v-97.9h19.8L410.2,321.6L410.2,321.6z M606.7,256.3c14.1,0,26.2,5.1,35.8,14.7
				c9.6,9.6,14.7,21.8,14.7,35.8c0,14.1-5.1,26.2-14.7,35.8c-9.6,9.6-21.8,14.7-35.8,14.7s-26.2-5.1-35.8-14.7
				c-9.6-9.6-14.7-21.8-14.7-35.8s5.1-26.2,14.7-35.8C580.5,261.4,592.6,256.3,606.7,256.3L606.7,256.3z M586.9,329.3
				c5.8,6.4,12.2,9,20.5,9s14.7-3.2,20.5-9c5.8-6.4,8.3-13.4,8.3-22.4c0-9-2.6-16-8.3-22.4s-12.2-9-20.5-9c-8.3,0-14.7,3.2-20.5,9
				c-5.8,6.4-8.3,13.4-8.3,22.4S581.1,323.5,586.9,329.3L586.9,329.3z"/>
			<path id="Shape_2_" sketch:type="MSShapeGroup" fill="#FFFFFF" d="M204.2,221.1c-16.6,0-30.7-14.1-30.7-30.7s13.4-30.7,30.7-30.7
				s30.7,14.1,30.7,30.7S220.8,221.1,204.2,221.1L204.2,221.1z M204.2,243.5c17.9,0,32.6,14.7,32.6,33.3c0,18.6-14.7,33.3-32.6,33.3
				s-32.6-14.7-32.6-33.3C170.9,258.2,185.6,243.5,204.2,243.5L204.2,243.5z M204.2,305c15.4,0,28.2-12.8,28.2-28.2
				c0-16-12.8-28.2-28.2-28.2S176,261.4,176,276.8C176,292.2,188.2,305,204.2,305L204.2,305z M118.4,223.7
				c-17.9,0-32.6-14.7-32.6-33.3s14.7-33.3,32.6-33.3s32.6,14.7,32.6,33.3C151.7,208.3,137,223.7,118.4,223.7L118.4,223.7z
				 M118.4,161.6c-15.4,0-28.2,12.8-28.2,28.2c0,16,12.8,28.2,28.2,28.2s28.2-12.8,28.2-28.2S134.4,161.6,118.4,161.6L118.4,161.6z
				 M33.3,396.5c-17.9,0-32.6-14.7-32.6-33.3c0-18.6,14.7-33.3,32.6-33.3s32.6,14.7,32.6,33.3C66.6,381.8,51.8,396.5,33.3,396.5
				L33.3,396.5z M33.3,335c-15.4,0-28.2,12.8-28.2,28.2c0,16,12.8,28.2,28.2,28.2s28.2-12.8,28.2-28.2S48.6,335,33.3,335L33.3,335z
				 M33.3,245.4c16.6,0,30.7,14.1,30.7,30.7s-13.4,30.7-30.7,30.7S2.6,292.8,2.6,276.2S16.6,245.4,33.3,245.4L33.3,245.4z
				 M33.3,223.7c-17.9,0-32.6-14.7-32.6-33.3s14.7-33.3,32.6-33.3s32.6,14.7,32.6,33.3C66.6,208.3,51.8,223.7,33.3,223.7L33.3,223.7
				z M33.3,161.6c-15.4,0-28.2,12.8-28.2,28.2c0,16,12.8,28.2,28.2,28.2s28.2-12.8,28.2-28.2S48.6,161.6,33.3,161.6L33.3,161.6z
				 M118.4,245.4c16.6,0,30.7,14.1,30.7,30.7s-13.4,30.7-30.7,30.7s-30.7-14.1-30.7-30.7S101.8,245.4,118.4,245.4L118.4,245.4z
				 M118.4,332.5c16.6,0,30.7,14.1,30.7,30.7s-13.4,30.7-30.7,30.7s-30.7-14.1-30.7-30.7S101.8,332.5,118.4,332.5L118.4,332.5z
				 M204.2,332.5c16.6,0,30.7,14.1,30.7,30.7s-13.4,30.7-30.7,30.7s-30.7-14.1-30.7-30.7S186.9,332.5,204.2,332.5L204.2,332.5z"/>
			<rect id="Rectangle-path" x="259.2" y="146.9" sketch:type="MSShapeGroup" fill="#FFFFFF" width="11.5" height="259.8">
			</rect>
		</g>
	</g>
</g>
</svg>
