<?xml version="1.0" standalone="no"?>
<!DOCTYPE svg PUBLIC "-//W3C//DTD SVG 20010904//EN"
 "http://www.w3.org/TR/2001/REC-SVG-20010904/DTD/svg10.dtd">
<svg version="1.0" xmlns="http://www.w3.org/2000/svg"
 width="70.000000pt" height="70.000000pt" viewBox="0 0 70.000000 70.000000"
 preserveAspectRatio="xMidYMid meet">
<metadata>
Created by potrace 1.11, written by Peter Selinger 2001-2013
</metadata>
<g transform="translate(0.000000,70.000000) scale(0.100000,-0.100000)"
fill="#000000" stroke="none">
<path d="M203 675 c-50 -23 -52 -25 -46 -55 7 -35 -11 -77 -36 -83 -9 -2 -26
0 -38 4 -28 10 -46 -6 -69 -66 l-17 -46 31 -29 c41 -38 42 -72 2 -102 -16 -12
-30 -27 -30 -32 0 -6 11 -35 25 -64 24 -52 25 -53 60 -46 50 9 76 -16 73 -68
-2 -43 3 -48 70 -74 l43 -17 31 31 c37 38 71 37 103 -5 l22 -27 47 18 c59 23
75 38 69 70 -3 15 2 37 12 52 15 23 22 26 57 21 40 -5 40 -5 64 46 30 65 30
73 -1 93 -13 9 -27 24 -30 35 -7 21 10 59 37 77 23 17 23 26 -6 89 -24 51 -25
52 -61 46 -51 -8 -79 18 -72 70 5 35 3 39 -31 56 -71 36 -82 36 -113 2 -35
-39 -63 -39 -99 -1 -15 17 -32 30 -37 30 -4 0 -32 -11 -60 -25z m187 -285 c11
-11 20 -29 20 -40 0 -26 -34 -60 -60 -60 -11 0 -29 9 -40 20 -11 11 -20 29
-20 40 0 11 9 29 20 40 11 11 29 20 40 20 11 0 29 -9 40 -20z"/>
</g>
</svg>
